<?xml version="1.0" encoding="UTF-8" ?>
<!DOCTYPE svg PUBLIC "-//W3C//DTD SVG 1.1//EN" "http://www.w3.org/Graphics/SVG/1.1/DTD/svg11.dtd">
<svg width="55pt" height="55pt" viewBox="0 0 55 55" version="1.1" xmlns="http://www.w3.org/2000/svg">
<g id="#ff0000ff">
</g>
<g id="#ffffffff">
<path fill="#ffffff" opacity="1.00" d=" M 21.47 6.61 C 31.10 3.25 42.49 7.52 47.70 16.24 C 52.75 24.25 51.93 35.46 45.63 42.56 C 40.91 48.22 33.30 51.27 25.97 50.36 C 18.42 49.61 11.56 44.63 8.25 37.84 C 5.81 32.86 5.33 26.96 6.91 21.64 C 8.92 14.65 14.57 8.86 21.47 6.61 M 24.30 13.08 C 17.46 14.95 12.35 21.91 13.02 29.05 C 13.35 37.10 20.96 43.94 29.00 43.48 C 37.45 43.42 44.82 35.40 43.98 26.95 C 43.66 17.50 33.33 10.20 24.30 13.08 Z" />
<path fill="#ffffff" opacity="1.00" d=" M 24.50 18.40 C 25.00 18.40 25.99 18.42 26.48 18.43 C 26.52 18.88 26.59 19.76 26.63 20.20 C 28.73 20.22 30.83 20.24 32.93 20.26 C 32.92 20.72 32.91 21.65 32.91 22.12 C 32.27 22.18 30.98 22.31 30.34 22.38 C 29.28 24.39 28.20 26.39 27.12 28.39 C 27.81 29.66 28.50 30.93 29.18 32.21 C 27.95 31.52 26.74 30.83 25.52 30.12 C 23.71 31.76 21.68 33.14 19.37 33.97 C 20.76 31.99 22.26 30.09 23.82 28.24 C 23.13 26.71 22.42 25.19 21.72 23.66 C 23.13 24.76 24.53 25.86 25.95 26.94 C 26.73 25.31 27.52 23.67 28.31 22.03 C 24.86 22.01 21.42 21.99 17.97 21.99 C 18.00 21.55 18.05 20.68 18.08 20.25 C 20.15 20.24 22.21 20.23 24.28 20.21 C 24.34 19.76 24.45 18.85 24.50 18.40 Z" />
<path fill="#ffffff" opacity="1.00" d=" M 32.39 26.15 C 32.92 26.17 33.98 26.21 34.52 26.23 C 35.93 29.92 37.19 33.68 38.20 37.51 C 37.21 36.48 36.23 35.44 35.26 34.40 C 33.91 34.34 32.56 34.28 31.22 34.23 C 30.86 35.22 30.50 36.22 30.14 37.22 C 29.65 37.33 28.67 37.56 28.18 37.67 C 29.55 33.82 30.96 29.98 32.39 26.15 M 31.90 32.46 C 32.66 32.52 34.18 32.63 34.94 32.68 C 34.48 31.39 34.02 30.09 33.56 28.80 C 33.00 30.02 32.45 31.24 31.90 32.46 Z" />
</g>
<g id="#00c4b6ff">
<path fill="#00c4b6" opacity="1.00" d=" M 24.30 13.08 C 33.33 10.20 43.66 17.50 43.98 26.95 C 44.82 35.40 37.45 43.42 29.00 43.48 C 20.96 43.94 13.35 37.10 13.02 29.05 C 12.35 21.91 17.46 14.95 24.30 13.08 M 24.50 18.40 C 24.45 18.85 24.34 19.76 24.28 20.21 C 22.21 20.23 20.15 20.24 18.08 20.25 C 18.05 20.68 18.00 21.55 17.97 21.99 C 21.42 21.99 24.86 22.01 28.31 22.03 C 27.52 23.67 26.73 25.31 25.95 26.94 C 24.53 25.86 23.13 24.76 21.72 23.66 C 22.42 25.19 23.13 26.71 23.82 28.24 C 22.26 30.09 20.76 31.99 19.37 33.97 C 21.68 33.14 23.71 31.76 25.52 30.12 C 26.74 30.83 27.95 31.52 29.18 32.21 C 28.50 30.93 27.81 29.66 27.12 28.39 C 28.20 26.39 29.28 24.39 30.34 22.38 C 30.98 22.31 32.27 22.18 32.91 22.12 C 32.91 21.65 32.92 20.72 32.93 20.26 C 30.83 20.24 28.73 20.22 26.63 20.20 C 26.59 19.76 26.52 18.88 26.48 18.43 C 25.99 18.42 25.00 18.40 24.50 18.40 M 32.39 26.15 C 30.96 29.98 29.55 33.82 28.18 37.67 C 28.67 37.56 29.65 37.33 30.14 37.22 C 30.50 36.22 30.86 35.22 31.22 34.23 C 32.56 34.28 33.91 34.34 35.26 34.40 C 36.23 35.44 37.21 36.48 38.20 37.51 C 37.19 33.68 35.93 29.92 34.52 26.23 C 33.98 26.21 32.92 26.17 32.39 26.15 Z" />
<path fill="#00c4b6" opacity="1.00" d=" M 31.90 32.46 C 32.45 31.24 33.00 30.02 33.56 28.80 C 34.02 30.09 34.48 31.39 34.94 32.68 C 34.18 32.63 32.66 32.52 31.90 32.46 Z" />
</g>
</svg>
